<svg xmlns="http://www.w3.org/2000/svg" viewBox="0 0 300 300" width="100%" height="100%">
  <circle cx="150" cy="150" r="135" fill="none" stroke="#888888" stroke-width="14"/>
  
  <g transform="translate(0, 0)">
    <defs>
      <mask id="stripes-mask">
        <rect width="300" height="300" fill="white" />
        <line x1="50" y1="95" x2="150" y2="95" stroke="black" stroke-width="4" />
        <line x1="50" y1="110" x2="150" y2="110" stroke="black" stroke-width="4" />
        <line x1="50" y1="125" x2="150" y2="125" stroke="black" stroke-width="4" />
        <line x1="50" y1="140" x2="150" y2="140" stroke="black" stroke-width="4" />
        <line x1="50" y1="155" x2="150" y2="155" stroke="black" stroke-width="4" />
        <line x1="50" y1="170" x2="150" y2="170" stroke="black" stroke-width="4" />
        <line x1="50" y1="185" x2="150" y2="185" stroke="black" stroke-width="4" />
        <line x1="50" y1="200" x2="150" y2="200" stroke="black" stroke-width="4" />
        <line x1="50" y1="215" x2="150" y2="215" stroke="black" stroke-width="4" />
      </mask>
    </defs>
    
    <path d="M 122 61 C 130 90, 100 130, 90 180 C 85 210, 105 235, 118 253 C 110 230, 115 200, 125 170 C 138 135, 145 90, 122 61 Z" 
          fill="#888888" 
          mask="url(#stripes-mask)" />

    <line x1="142" y1="183" x2="187" y2="140" stroke="#00b2a9" stroke-width="14" stroke-linecap="round" />
    <line x1="162" y1="202" x2="192" y2="173" stroke="#00b2a9" stroke-width="14" stroke-linecap="round" />
    <circle cx="188" cy="221" r="7.5" fill="#00b2a9" />
  </g>
</svg>
